STARTFONT 2.1
FONT -FontForge-Fixed-Medium-R-Normal--13-120-75-75-M-60-ISO8859-5
SIZE 12 75 75
FONTBOUNDINGBOX 6 13 0 -2
COMMENT "Generated by fontforge, http://fontforge.sourceforge.net"
STARTPROPERTIES 27
FONT_NAME "FixedMedium"
FONT_ASCENT 11
FONT_DESCENT 2
UNDERLINE_POSITION -100
UNDERLINE_THICKNESS 50
QUAD_WIDTH 13
X_HEIGHT 10
CAP_HEIGHT 10
FONTNAME_REGISTRY ""
FAMILY_NAME "Fixed"
FOUNDRY "FontForge"
WEIGHT_NAME "Medium"
SETWIDTH_NAME "Normal"
SLANT "R"
ADD_STYLE_NAME ""
PIXEL_SIZE 13
POINT_SIZE 120
RESOLUTION_X 75
RESOLUTION_Y 75
RESOLUTION 75
SPACING "M"
AVERAGE_WIDTH 60
CHARSET_REGISTRY "ISO8859"
CHARSET_ENCODING "-5"
CHARSET_COLLECTIONS "ASCII ISO8859-5 ISO8859-5"
FULL_NAME "Fixed-Medium"
COPYRIGHT "Created by Bjorn Gustavsson with FontForge 1.0 (http://fontforge.sf.net)"
ENDPROPERTIES
CHARS 95
STARTCHAR afii10023
ENCODING 161
SWIDTH 480 0
DWIDTH 6 0
BBX 5 9 0 0
BITMAP
50
00
F8
80
80
F0
80
80
F8
ENDCHAR
STARTCHAR afii10051
ENCODING 162
SWIDTH 480 0
DWIDTH 6 0
BBX 5 9 0 -2
BITMAP
E0
40
40
70
48
48
48
08
30
ENDCHAR
STARTCHAR afii10052
ENCODING 163
SWIDTH 480 0
DWIDTH 6 0
BBX 5 10 0 0
BITMAP
10
20
00
F8
80
80
80
80
80
80
ENDCHAR
STARTCHAR afii10053
ENCODING 164
SWIDTH 480 0
DWIDTH 6 0
BBX 5 7 0 0
BITMAP
70
88
80
F0
80
88
70
ENDCHAR
STARTCHAR afii10054
ENCODING 165
SWIDTH 480 0
DWIDTH 6 0
BBX 5 7 0 0
BITMAP
70
88
80
70
08
88
70
ENDCHAR
STARTCHAR afii10055
ENCODING 166
SWIDTH 480 0
DWIDTH 6 0
BBX 3 7 1 0
BITMAP
E0
40
40
40
40
40
E0
ENDCHAR
STARTCHAR afii10056
ENCODING 167
SWIDTH 480 0
DWIDTH 6 0
BBX 3 9 1 0
BITMAP
A0
00
E0
40
40
40
40
40
E0
ENDCHAR
STARTCHAR afii10057
ENCODING 168
SWIDTH 480 0
DWIDTH 6 0
BBX 5 7 0 0
BITMAP
38
10
10
10
10
90
60
ENDCHAR
STARTCHAR afii10058
ENCODING 169
SWIDTH 480 0
DWIDTH 6 0
BBX 5 7 0 0
BITMAP
60
A0
A0
B0
A8
A8
B0
ENDCHAR
STARTCHAR afii10059
ENCODING 170
SWIDTH 480 0
DWIDTH 6 0
BBX 5 7 0 0
BITMAP
A0
A0
A0
F0
A8
A8
B0
ENDCHAR
STARTCHAR afii10060
ENCODING 171
SWIDTH 480 0
DWIDTH 6 0
BBX 5 7 0 0
BITMAP
E0
40
40
70
48
48
48
ENDCHAR
STARTCHAR afii10061
ENCODING 172
SWIDTH 480 0
DWIDTH 6 0
BBX 5 10 0 0
BITMAP
10
20
00
88
90
A0
C0
A0
90
88
ENDCHAR
STARTCHAR softhyphen
ENCODING 173
SWIDTH 480 0
DWIDTH 6 0
BBX 3 1 1 3
BITMAP
E0
ENDCHAR
STARTCHAR afii10062
ENCODING 174
SWIDTH 480 0
DWIDTH 6 0
BBX 5 10 0 0
BITMAP
88
70
00
88
88
88
88
78
08
70
ENDCHAR
STARTCHAR afii10145
ENCODING 175
SWIDTH 480 0
DWIDTH 6 0
BBX 5 9 0 -2
BITMAP
88
88
88
88
88
88
F8
20
20
ENDCHAR
STARTCHAR afii10017
ENCODING 176
SWIDTH 480 0
DWIDTH 6 0
BBX 5 7 0 0
BITMAP
70
88
88
F8
88
88
88
ENDCHAR
STARTCHAR afii10018
ENCODING 177
SWIDTH 480 0
DWIDTH 6 0
BBX 5 7 0 0
BITMAP
F0
80
80
F0
88
88
F0
ENDCHAR
STARTCHAR afii10019
ENCODING 178
SWIDTH 480 0
DWIDTH 6 0
BBX 5 7 0 0
BITMAP
F0
88
88
F0
88
88
F0
ENDCHAR
STARTCHAR afii10020
ENCODING 179
SWIDTH 480 0
DWIDTH 6 0
BBX 5 7 0 0
BITMAP
F8
80
80
80
80
80
80
ENDCHAR
STARTCHAR afii10021
ENCODING 180
SWIDTH 480 0
DWIDTH 6 0
BBX 5 8 0 -1
BITMAP
30
50
50
50
50
50
F8
88
ENDCHAR
STARTCHAR afii10022
ENCODING 181
SWIDTH 480 0
DWIDTH 6 0
BBX 5 7 0 0
BITMAP
F8
80
80
F0
80
80
F8
ENDCHAR
STARTCHAR afii10024
ENCODING 182
SWIDTH 480 0
DWIDTH 6 0
BBX 5 7 0 0
BITMAP
A8
A8
70
20
70
A8
A8
ENDCHAR
STARTCHAR afii10025
ENCODING 183
SWIDTH 480 0
DWIDTH 6 0
BBX 5 7 0 0
BITMAP
70
88
08
70
08
88
70
ENDCHAR
STARTCHAR afii10026
ENCODING 184
SWIDTH 480 0
DWIDTH 6 0
BBX 5 7 0 0
BITMAP
88
88
98
A8
C8
88
88
ENDCHAR
STARTCHAR afii10027
ENCODING 185
SWIDTH 480 0
DWIDTH 6 0
BBX 5 10 0 0
BITMAP
88
70
00
88
88
98
A8
C8
88
88
ENDCHAR
STARTCHAR afii10028
ENCODING 186
SWIDTH 480 0
DWIDTH 6 0
BBX 5 7 0 0
BITMAP
88
90
A0
C0
A0
90
88
ENDCHAR
STARTCHAR afii10029
ENCODING 187
SWIDTH 480 0
DWIDTH 6 0
BBX 5 7 0 0
BITMAP
38
48
48
48
48
48
88
ENDCHAR
STARTCHAR afii10030
ENCODING 188
SWIDTH 480 0
DWIDTH 6 0
BBX 5 7 0 0
BITMAP
88
D8
A8
88
88
88
88
ENDCHAR
STARTCHAR afii10031
ENCODING 189
SWIDTH 480 0
DWIDTH 6 0
BBX 5 7 0 0
BITMAP
88
88
88
F8
88
88
88
ENDCHAR
STARTCHAR afii10032
ENCODING 190
SWIDTH 480 0
DWIDTH 6 0
BBX 5 7 0 0
BITMAP
70
88
88
88
88
88
70
ENDCHAR
STARTCHAR afii10033
ENCODING 191
SWIDTH 480 0
DWIDTH 6 0
BBX 5 7 0 0
BITMAP
F8
88
88
88
88
88
88
ENDCHAR
STARTCHAR afii10034
ENCODING 192
SWIDTH 480 0
DWIDTH 6 0
BBX 5 7 0 0
BITMAP
F0
88
88
F0
80
80
80
ENDCHAR
STARTCHAR afii10035
ENCODING 193
SWIDTH 480 0
DWIDTH 6 0
BBX 5 7 0 0
BITMAP
70
88
80
80
80
88
70
ENDCHAR
STARTCHAR afii10036
ENCODING 194
SWIDTH 480 0
DWIDTH 6 0
BBX 5 7 0 0
BITMAP
F8
20
20
20
20
20
20
ENDCHAR
STARTCHAR afii10037
ENCODING 195
SWIDTH 480 0
DWIDTH 6 0
BBX 5 7 0 0
BITMAP
88
88
88
88
78
08
70
ENDCHAR
STARTCHAR afii10038
ENCODING 196
SWIDTH 480 0
DWIDTH 6 0
BBX 5 7 0 0
BITMAP
20
70
A8
A8
A8
70
20
ENDCHAR
STARTCHAR afii10039
ENCODING 197
SWIDTH 480 0
DWIDTH 6 0
BBX 5 7 0 0
BITMAP
88
88
50
20
50
88
88
ENDCHAR
STARTCHAR afii10040
ENCODING 198
SWIDTH 480 0
DWIDTH 6 0
BBX 5 9 0 -2
BITMAP
90
90
90
90
90
90
F8
08
08
ENDCHAR
STARTCHAR afii10041
ENCODING 199
SWIDTH 480 0
DWIDTH 6 0
BBX 5 7 0 0
BITMAP
88
88
88
78
08
08
08
ENDCHAR
STARTCHAR afii10042
ENCODING 200
SWIDTH 480 0
DWIDTH 6 0
BBX 5 7 0 0
BITMAP
A8
A8
A8
A8
A8
A8
F8
ENDCHAR
STARTCHAR afii10043
ENCODING 201
SWIDTH 480 0
DWIDTH 6 0
BBX 5 9 0 -2
BITMAP
A8
A8
A8
A8
A8
A8
F8
08
08
ENDCHAR
STARTCHAR afii10044
ENCODING 202
SWIDTH 480 0
DWIDTH 6 0
BBX 5 7 0 0
BITMAP
C0
40
40
70
48
48
70
ENDCHAR
STARTCHAR afii10045
ENCODING 203
SWIDTH 480 0
DWIDTH 6 0
BBX 5 7 0 0
BITMAP
88
88
88
C8
A8
A8
C8
ENDCHAR
STARTCHAR afii10046
ENCODING 204
SWIDTH 480 0
DWIDTH 6 0
BBX 4 7 1 0
BITMAP
80
80
80
E0
90
90
E0
ENDCHAR
STARTCHAR afii10047
ENCODING 205
SWIDTH 480 0
DWIDTH 6 0
BBX 5 7 0 0
BITMAP
70
88
08
78
08
88
70
ENDCHAR
STARTCHAR afii10048
ENCODING 206
SWIDTH 480 0
DWIDTH 6 0
BBX 5 7 0 0
BITMAP
90
A8
A8
E8
A8
A8
90
ENDCHAR
STARTCHAR afii10049
ENCODING 207
SWIDTH 480 0
DWIDTH 6 0
BBX 5 7 0 0
BITMAP
78
88
88
78
28
48
88
ENDCHAR
STARTCHAR afii10065
ENCODING 208
SWIDTH 480 0
DWIDTH 6 0
BBX 5 5 0 0
BITMAP
70
08
78
88
78
ENDCHAR
STARTCHAR afii10066
ENCODING 209
SWIDTH 480 0
DWIDTH 6 0
BBX 5 7 0 0
BITMAP
70
80
F0
88
88
88
70
ENDCHAR
STARTCHAR afii10067
ENCODING 210
SWIDTH 480 0
DWIDTH 6 0
BBX 5 5 0 0
BITMAP
F0
88
F0
88
F0
ENDCHAR
STARTCHAR afii10068
ENCODING 211
SWIDTH 480 0
DWIDTH 6 0
BBX 5 5 0 0
BITMAP
F8
80
80
80
80
ENDCHAR
STARTCHAR afii10069
ENCODING 212
SWIDTH 480 0
DWIDTH 6 0
BBX 5 6 0 -1
BITMAP
30
50
50
50
F8
88
ENDCHAR
STARTCHAR afii10070
ENCODING 213
SWIDTH 480 0
DWIDTH 6 0
BBX 5 5 0 0
BITMAP
70
88
F0
80
70
ENDCHAR
STARTCHAR afii10072
ENCODING 214
SWIDTH 480 0
DWIDTH 6 0
BBX 5 5 0 0
BITMAP
A8
70
20
70
A8
ENDCHAR
STARTCHAR afii10073
ENCODING 215
SWIDTH 480 0
DWIDTH 6 0
BBX 5 5 0 0
BITMAP
70
88
30
88
70
ENDCHAR
STARTCHAR afii10074
ENCODING 216
SWIDTH 480 0
DWIDTH 6 0
BBX 5 5 0 0
BITMAP
88
98
A8
C8
88
ENDCHAR
STARTCHAR afii10075
ENCODING 217
SWIDTH 480 0
DWIDTH 6 0
BBX 5 8 0 0
BITMAP
88
70
00
88
98
A8
C8
88
ENDCHAR
STARTCHAR afii10076
ENCODING 218
SWIDTH 480 0
DWIDTH 6 0
BBX 4 5 1 0
BITMAP
90
A0
C0
A0
90
ENDCHAR
STARTCHAR afii10077
ENCODING 219
SWIDTH 480 0
DWIDTH 6 0
BBX 5 5 0 0
BITMAP
38
48
48
48
88
ENDCHAR
STARTCHAR afii10078
ENCODING 220
SWIDTH 480 0
DWIDTH 6 0
BBX 5 5 0 0
BITMAP
88
D8
A8
88
88
ENDCHAR
STARTCHAR afii10079
ENCODING 221
SWIDTH 480 0
DWIDTH 6 0
BBX 5 5 0 0
BITMAP
88
88
F8
88
88
ENDCHAR
STARTCHAR afii10080
ENCODING 222
SWIDTH 480 0
DWIDTH 6 0
BBX 5 5 0 0
BITMAP
70
88
88
88
70
ENDCHAR
STARTCHAR afii10081
ENCODING 223
SWIDTH 480 0
DWIDTH 6 0
BBX 5 5 0 0
BITMAP
F8
88
88
88
88
ENDCHAR
STARTCHAR afii10082
ENCODING 224
SWIDTH 480 0
DWIDTH 6 0
BBX 5 7 0 -2
BITMAP
F0
88
88
88
F0
80
80
ENDCHAR
STARTCHAR afii10083
ENCODING 225
SWIDTH 480 0
DWIDTH 6 0
BBX 5 5 0 0
BITMAP
70
88
80
88
70
ENDCHAR
STARTCHAR afii10084
ENCODING 226
SWIDTH 480 0
DWIDTH 6 0
BBX 5 5 0 0
BITMAP
F8
20
20
20
20
ENDCHAR
STARTCHAR afii10085
ENCODING 227
SWIDTH 480 0
DWIDTH 6 0
BBX 5 7 0 -2
BITMAP
88
88
88
88
78
08
70
ENDCHAR
STARTCHAR afii10086
ENCODING 228
SWIDTH 480 0
DWIDTH 6 0
BBX 5 9 0 -2
BITMAP
20
20
70
A8
A8
A8
70
20
20
ENDCHAR
STARTCHAR afii10087
ENCODING 229
SWIDTH 480 0
DWIDTH 6 0
BBX 5 5 0 0
BITMAP
88
50
20
50
88
ENDCHAR
STARTCHAR afii10088
ENCODING 230
SWIDTH 480 0
DWIDTH 6 0
BBX 5 7 0 -2
BITMAP
90
90
90
90
F8
08
08
ENDCHAR
STARTCHAR afii10089
ENCODING 231
SWIDTH 480 0
DWIDTH 6 0
BBX 5 5 0 0
BITMAP
88
88
78
08
08
ENDCHAR
STARTCHAR afii10090
ENCODING 232
SWIDTH 480 0
DWIDTH 6 0
BBX 5 5 0 0
BITMAP
A8
A8
A8
A8
F8
ENDCHAR
STARTCHAR afii10091
ENCODING 233
SWIDTH 480 0
DWIDTH 6 0
BBX 5 7 0 -2
BITMAP
A8
A8
A8
A8
F8
08
08
ENDCHAR
STARTCHAR afii10092
ENCODING 234
SWIDTH 480 0
DWIDTH 6 0
BBX 5 5 0 0
BITMAP
C0
40
70
48
70
ENDCHAR
STARTCHAR afii10093
ENCODING 235
SWIDTH 480 0
DWIDTH 6 0
BBX 5 5 0 0
BITMAP
88
88
C8
A8
C8
ENDCHAR
STARTCHAR afii10094
ENCODING 236
SWIDTH 480 0
DWIDTH 6 0
BBX 4 5 1 0
BITMAP
80
80
E0
90
E0
ENDCHAR
STARTCHAR afii10095
ENCODING 237
SWIDTH 480 0
DWIDTH 6 0
BBX 4 5 1 0
BITMAP
E0
10
70
10
E0
ENDCHAR
STARTCHAR afii10096
ENCODING 238
SWIDTH 480 0
DWIDTH 6 0
BBX 5 5 0 0
BITMAP
90
A8
E8
A8
90
ENDCHAR
STARTCHAR afii10097
ENCODING 239
SWIDTH 480 0
DWIDTH 6 0
BBX 4 5 1 0
BITMAP
70
90
70
50
90
ENDCHAR
STARTCHAR afii61352
ENCODING 240
SWIDTH 480 0
DWIDTH 6 0
BBX 6 7 0 0
BITMAP
90
90
D8
B4
94
98
9C
ENDCHAR
STARTCHAR afii10071
ENCODING 241
SWIDTH 480 0
DWIDTH 6 0
BBX 5 7 0 0
BITMAP
50
00
70
88
F0
80
70
ENDCHAR
STARTCHAR afii10099
ENCODING 242
SWIDTH 480 0
DWIDTH 6 0
BBX 5 9 0 -2
BITMAP
40
E0
40
70
48
48
48
08
10
ENDCHAR
STARTCHAR afii10100
ENCODING 243
SWIDTH 480 0
DWIDTH 6 0
BBX 5 8 0 0
BITMAP
10
20
00
F8
80
80
80
80
ENDCHAR
STARTCHAR afii10101
ENCODING 244
SWIDTH 480 0
DWIDTH 6 0
BBX 4 5 1 0
BITMAP
70
80
E0
80
70
ENDCHAR
STARTCHAR afii10102
ENCODING 245
SWIDTH 480 0
DWIDTH 6 0
BBX 5 5 0 0
BITMAP
78
80
70
08
F0
ENDCHAR
STARTCHAR afii10103
ENCODING 246
SWIDTH 480 0
DWIDTH 6 0
BBX 3 6 1 0
BITMAP
40
00
C0
40
40
E0
ENDCHAR
STARTCHAR afii10104
ENCODING 247
SWIDTH 480 0
DWIDTH 6 0
BBX 3 6 1 0
BITMAP
A0
00
C0
40
40
E0
ENDCHAR
STARTCHAR afii10105
ENCODING 248
SWIDTH 480 0
DWIDTH 6 0
BBX 4 8 1 -2
BITMAP
10
00
30
10
10
10
90
60
ENDCHAR
STARTCHAR afii10106
ENCODING 249
SWIDTH 480 0
DWIDTH 6 0
BBX 5 5 0 0
BITMAP
60
A0
B0
A8
B0
ENDCHAR
STARTCHAR afii10107
ENCODING 250
SWIDTH 480 0
DWIDTH 6 0
BBX 5 5 0 0
BITMAP
A0
A0
F0
A8
B0
ENDCHAR
STARTCHAR afii10108
ENCODING 251
SWIDTH 480 0
DWIDTH 6 0
BBX 5 7 0 0
BITMAP
40
E0
40
70
48
48
48
ENDCHAR
STARTCHAR afii10109
ENCODING 252
SWIDTH 480 0
DWIDTH 6 0
BBX 4 8 1 0
BITMAP
20
40
00
90
A0
C0
A0
90
ENDCHAR
STARTCHAR section
ENCODING 253
SWIDTH 480 0
DWIDTH 6 0
BBX 4 8 1 0
BITMAP
70
80
60
90
90
60
10
E0
ENDCHAR
STARTCHAR afii10110
ENCODING 254
SWIDTH 480 0
DWIDTH 6 0
BBX 5 10 0 -2
BITMAP
88
70
00
88
88
88
88
78
08
70
ENDCHAR
STARTCHAR afii10193
ENCODING 255
SWIDTH 480 0
DWIDTH 6 0
BBX 5 7 0 -2
BITMAP
88
88
88
88
F8
20
20
ENDCHAR
ENDFONT
